HIERARCHY
ROOT hip
{
	OFFSET 0.000000 0.000000 0.000000
	CHANNELS 6 Xposition Yposition Zposition Zrotation Yrotation Xrotation 
	JOINT lhipjoint
	{
		OFFSET 0.000000 0.000000 0.000000
		CHANNELS 3 Zrotation Yrotation Xrotation
		JOINT lfemur
		{
			OFFSET 1.363060 -1.794630 0.839290
			CHANNELS 3 Zrotation Yrotation Xrotation
			JOINT ltibia
			{
				OFFSET 2.448110 -6.726130 0.000000
				CHANNELS 3 Zrotation Yrotation Xrotation
				JOINT lfoot
				{
					OFFSET 2.562200 -7.039590 0.000000
					CHANNELS 3 Zrotation Yrotation Xrotation
					JOINT ltoes
					{
						OFFSET 0.157640 -0.433110 2.322550
						CHANNELS 3 Zrotation Yrotation Xrotation
						End Site
						{
							OFFSET 0.000000 0.000000 0.000000
						}
					}
				}
			}
		}
	}
	JOINT rhipjoint
	{
		OFFSET 0.000000 0.000000 0.000000
		CHANNELS 3 Zrotation Yrotation Xrotation
		JOINT rfemur
		{
			OFFSET -1.305520 -1.794630 0.839290
			CHANNELS 3 Zrotation Yrotation Xrotation
			JOINT rtibia
			{
				OFFSET -2.542530 -6.985550 0.000000
				CHANNELS 3 Zrotation Yrotation Xrotation
				JOINT rfoot
				{
					OFFSET -2.568260 -7.056230 0.000000
					CHANNELS 3 Zrotation Yrotation Xrotation
					JOINT rtoes
					{
						OFFSET -0.164730 -0.452590 2.363150
						CHANNELS 3 Zrotation Yrotation Xrotation
						End Site
						{
							OFFSET 0.000000 0.000000 0.000000
						}
					}
				}
			}
		}
	}
	JOINT lowerback
	{
		OFFSET 0.000000 0.000000 0.000000
		CHANNELS 3 Zrotation Yrotation Xrotation
		JOINT upperback
		{
			OFFSET 0.028270 2.035590 -0.193380
			CHANNELS 3 Zrotation Yrotation Xrotation
			JOINT thorax
			{
				OFFSET 0.056720 2.048850 -0.042750
				CHANNELS 3 Zrotation Yrotation Xrotation
				JOINT lowerneck
				{
					OFFSET 0.000000 0.000000 0.000000
					CHANNELS 3 Zrotation Yrotation Xrotation
					JOINT upperneck
					{
						OFFSET -0.054170 1.746240 0.172020
						CHANNELS 3 Zrotation Yrotation Xrotation
						JOINT head
						{
							OFFSET 0.104070 1.761360 -0.123970
							CHANNELS 3 Zrotation Yrotation Xrotation
							End Site
							{
								OFFSET 0.000000 0.000000 0.000000
							}
						}
					}
				}
				JOINT lclavicle
				{
					OFFSET 0.000000 0.000000 0.000000
					CHANNELS 3 Zrotation Yrotation Xrotation
					JOINT lhumerus
					{
						OFFSET 3.362410 1.200890 -0.311210
						CHANNELS 3 Zrotation Yrotation Xrotation
						JOINT lradius
						{
							OFFSET 4.983000 -0.000000 -0.000000
							CHANNELS 3 Zrotation Yrotation Xrotation
							JOINT lwrist
							{
								OFFSET 3.483560 -0.000000 -0.000000
								CHANNELS 3 Zrotation Yrotation Xrotation
								JOINT lhand
								{
									OFFSET 0.000000 0.000000 0.000000
									CHANNELS 3 Zrotation Yrotation Xrotation
									JOINT lfingers
									{
										OFFSET 0.715260 -0.000000 -0.000000
										CHANNELS 3 Zrotation Yrotation Xrotation
										End Site
										{
											OFFSET 0.000000 0.000000 0.000000
										}
									}
								}
								JOINT lthumb
								{
									OFFSET 0.000000 0.000000 0.000000
									CHANNELS 3 Zrotation Yrotation Xrotation
									End Site
									{
										OFFSET 0.000000 0.000000 0.000000
									}
								}
							}
						}
					}
				}
				JOINT rclavicle
				{
					OFFSET 0.000000 0.000000 0.000000
					CHANNELS 3 Zrotation Yrotation Xrotation
					JOINT rhumerus
					{
						OFFSET -3.136600 1.374050 -0.404650
						CHANNELS 3 Zrotation Yrotation Xrotation
						JOINT rradius
						{
							OFFSET -5.241900 -0.000000 -0.000000
							CHANNELS 3 Zrotation Yrotation Xrotation
							JOINT rwrist
							{
								OFFSET -3.444170 -0.000000 -0.000000
								CHANNELS 3 Zrotation Yrotation Xrotation
								JOINT rhand
								{
									OFFSET 0.000000 0.000000 0.000000
									CHANNELS 3 Zrotation Yrotation Xrotation
									JOINT rfingers
									{
										OFFSET -0.622530 -0.000000 -0.000000
										CHANNELS 3 Zrotation Yrotation Xrotation
										End Site
										{
											OFFSET 0.000000 0.000000 0.000000
										}
									}
								}
								JOINT rthumb
								{
									OFFSET 0.000000 0.000000 0.000000
									CHANNELS 3 Zrotation Yrotation Xrotation
									End Site
									{
										OFFSET 0.000000 0.000000 0.000000
									}
								}
							}
						}
					}
				}
			}
		}
	}
}
MOTION
Frames: 6
Frame Time: 0.008333
3.491040 15.632911 1.400196 -176.506303 -10.210833 145.711820 -7.260268 -2.873903 -0.596543 -17.745465 -2.600458 -100.500051 17.017268 15.665683 79.464642 0.261925 -1.560982 -6.808784 1.126800 -6.742400 -18.954300 4.831799 6.604375 -5.268500 17.926115 -19.198021 21.601852 -4.690463 -17.402372 41.072528 -1.532017 19.232886 -13.685450 -0.201500 2.890200 -7.973300 -1.514536 6.967758 32.759707 0.187536 3.428833 1.251434 -5.045629 -1.417669 13.297408 -8.927136 -0.672660 -8.851355 20.677146 -4.824020 8.458850 6.509100 -2.300600 1.269400 -8.094166 -5.871101 2.758668 -2.356616 -34.453288 -7.822189 115.168985 -57.858392 -82.328019 -0.643114 0.581360 -13.174126 52.319982 -8.701995 -12.591300 -7.125000 0.000000 0.000000 17.471300 14.578800 -13.147900 9.590880 2.456111 4.550090 62.085574 -19.206769 27.549352 -42.492412 54.883100 -18.436205 -0.555053 -2.241488 -6.086742 -23.063651 18.176935 -8.240100 7.125000 0.000000 0.000000 3.963300 -7.847400 3.393400 
3.470526 15.599319 1.346718 -175.995258 -9.078471 145.089787 -7.298200 -2.912876 -0.585874 -18.548308 -0.899111 -99.154862 15.135592 15.274646 73.243556 0.186020 -3.019215 -1.822391 1.084600 -6.619100 -18.591800 4.868403 6.526776 -5.255700 18.093194 -19.727367 22.299695 -4.637731 -17.392012 40.936151 -1.460476 20.241576 -12.982021 -0.155600 2.541900 -7.005900 -0.494860 6.953683 31.781696 0.123271 3.543979 1.316349 -5.808380 -1.161082 13.909497 -8.669737 -0.234162 -7.963060 20.805541 -4.499229 9.123023 6.511600 -2.167100 1.153300 -8.174261 -5.832358 2.893791 -1.264467 -33.696315 -10.262504 117.751941 -57.385844 -84.575902 -0.607125 0.584765 -13.221627 52.686617 -9.440298 -13.659200 -7.125000 0.000000 0.000000 17.474900 13.358400 -13.627700 9.656470 2.317420 4.580625 61.028794 -19.358471 28.849822 -41.373900 54.424457 -17.782489 -0.527722 -2.191387 -7.367970 -23.161715 18.317905 -8.301900 7.125000 0.000000 0.000000 3.918000 -7.754300 3.361600 
3.446072 15.572714 1.293240 -175.569271 -7.897515 144.563464 -7.339198 -2.944678 -0.558669 -18.934934 0.777162 -97.611589 13.281563 14.669234 66.902535 0.156557 -3.777658 3.703919 1.451800 -7.616300 -21.554400 4.912949 6.449641 -5.232866 18.103499 -20.218350 23.004579 -4.561028 -17.361387 40.711048 -1.348797 21.361159 -12.072524 -0.099300 2.032100 -5.594400 0.543166 6.951488 30.706939 0.031457 3.687927 1.330766 -6.700062 -0.843967 14.409621 -8.246852 0.237770 -7.143112 21.001055 -4.218199 10.243339 6.487400 -2.030600 1.196100 -8.244248 -5.793096 2.993327 -0.598254 -32.747677 -11.957014 119.760245 -56.976357 -86.312627 -0.564383 0.586490 -12.591600 52.899671 -9.874964 -14.270300 -7.125000 0.000000 0.000000 17.469600 12.660800 -13.892500 9.693048 2.209920 4.620428 60.139954 -19.432638 30.208896 -39.956507 53.793857 -16.929061 -0.498923 -2.144148 -8.524144 -23.263979 18.397737 -8.347300 7.125000 0.000000 0.000000 3.859700 -7.719300 3.314000 
3.420363 15.564025 1.246659 -175.193113 -6.619061 144.124099 -7.386170 -2.952232 -0.512405 -18.564921 2.280332 -95.693527 11.517653 13.857937 60.578556 0.214707 -4.471171 8.695223 1.855000 -8.557300 -24.419900 4.957389 6.364868 -5.194149 18.087232 -20.622730 23.681856 -4.458479 -17.293029 40.366554 -1.201768 22.458488 -10.979382 -0.052300 1.476000 -4.059400 1.545536 6.938363 29.529176 -0.062471 3.881024 1.268525 -7.540613 -0.481499 14.672678 -7.797707 0.799162 -6.183256 21.282995 -3.930581 11.769091 6.477000 -1.881200 1.330400 -8.297716 -5.781428 3.056358 -0.517320 -31.548544 -12.771754 121.412619 -56.581449 -87.759368 -0.519777 0.580922 -11.808390 53.182040 -10.280111 -14.871500 -7.125000 0.000000 0.000000 17.516700 11.997200 -14.188900 9.706977 2.131116 4.667771 59.340327 -19.581117 31.608995 -38.381570 53.043470 -15.978613 -0.476735 -2.091411 -9.466777 -23.317764 18.505790 -8.383400 7.125000 0.000000 0.000000 3.832300 -7.666600 3.294400 
3.396087 15.569310 1.207603 -174.838172 -5.230722 143.687039 -7.457908 -2.914911 -0.417492 -17.195712 3.543587 -93.258355 9.906035 12.883572 54.464937 0.288334 -4.891284 12.435084 2.443400 -9.734200 -28.120100 4.995368 6.257133 -5.107911 18.156107 -20.913604 24.349516 -4.349229 -17.197219 39.964357 -1.036261 23.469607 -9.795797 -0.019800 0.908000 -2.495800 2.563900 6.887904 28.466338 -0.113910 4.094447 0.944929 -8.374743 -0.075109 14.799783 -7.262142 1.459872 -4.941936 21.478498 -3.576459 13.449036 6.440800 -1.720100 1.412500 -8.303910 -5.777593 3.073081 -1.023278 -30.068720 -12.840528 122.963670 -56.129938 -89.151304 -0.477688 0.565054 -11.195851 53.666149 -10.820999 -15.747200 -7.125000 0.000000 0.000000 17.649600 11.063500 -14.666500 9.671362 2.053944 4.696460 58.637019 -19.792740 33.036413 -36.691942 52.209700 -14.972418 -0.469309 -2.031830 -10.208688 -23.295963 18.796455 -8.453600 7.125000 0.000000 0.000000 3.872200 -7.440500 3.346000 
3.367332 15.572983 1.167562 -174.642846 -3.868716 143.326222 -7.521681 -2.862900 -0.343908 -15.038259 4.650500 -90.276510 8.456000 11.793346 48.607126 0.346098 -4.668173 15.240994 2.495700 -9.830200 -28.428500 5.047084 6.164926 -5.044644 18.067199 -21.067364 25.059776 -4.242270 -17.114294 39.577907 -0.864614 24.435760 -8.691436 -0.005000 0.458000 -1.258400 3.448747 6.849889 27.289438 -0.210874 4.329988 0.767307 -9.123386 0.300056 14.580570 -6.581728 2.173662 -3.244864 21.579386 -3.165086 15.021466 6.314400 -1.559700 1.378000 -8.337241 -5.813122 3.108964 -1.915925 -28.378481 -12.414065 124.342553 -55.689720 -90.407783 -0.438171 0.543317 -10.597492 54.067305 -11.319912 -16.529300 -7.125000 0.000000 0.000000 17.745700 10.228000 -15.073900 9.637176 2.028033 4.768597 58.073780 -20.050888 34.311900 -34.906061 51.247815 -13.927694 -0.478664 -1.967078 -10.664321 -23.293964 19.303037 -8.610400 7.125000 0.000000 0.000000 3.922900 -6.986400 3.424900 
